# xmcd
#
# Track frame offsets:
#	151
#	17264
#	29667
#	45968
#	64931
#	84952
#	97401
#	112182
#	130827
#	146082
#	161702
#	179509
#	191852
#	205895
#	219843
#	234072
#	243735
#
# Disc length: 3440 seconds
#
# Revision: 0
# Processed by: cddbd v1.5.1PL2 Copyright (c) Steve Scherf et al.
# Submitted via: dBpowerAMP V4.0
#
DISCID=f30d6e11
DTITLE=The Ropes/Rene Guylline - Something Old, Something New
DYEAR=1900
DGENRE=Country
TTITLE0=She Changed Her Mind
TTITLE1=Listen to a Country Song
TTITLE2=Stars ar Falling over Texas Tonight
TTITLE3=The Bug
TTITLE4=(We're Gonna Dance) At The Wichita C.C.
TTITLE5=I'm so Lonesome I Could Cry
TTITLE6=Drivin' My Life Away
TTITLE7=Fats' Medley
TTITLE8=Somebody Done Somebody Wrong Song
TTITLE9=The Bounty Hunters' Step
TTITLE10=Country Roads
TTITLE11=Wasted Days and Wasted Nights
TTITLE12=Six Days On The Road
TTITLE13=Dixie
TTITLE14=There Is No Spark
TTITLE15=Don't Be Cruel
TTITLE16=Performing The Dixie
EXTD=
EXTT0=
EXTT1=
EXTT2=
EXTT3=
EXTT4=
EXTT5=
EXTT6=
EXTT7=
EXTT8=
EXTT9=
EXTT10=
EXTT11=
EXTT12=
EXTT13=
EXTT14=
EXTT15=
EXTT16=
PLAYORDER=
